<svg xmlns="http://www.w3.org/2000/svg" width="16" height="11.68" viewBox="0 0 16 11.68">
  <defs>
    <style>
      .cls-1 {
        fill: #fff;
        fill-rule: evenodd;
      }
    </style>
  </defs>
  <path id="Backhoe.svg" class="cls-1" d="M59.718,4573.78a0.858,0.858,0,0,0,.116-0.43,0.837,0.837,0,0,0-.8-0.83l-1.837-3.71a1.259,1.259,0,0,0,.089-0.47,1.312,1.312,0,0,0-2.62-.09l-1.8,1.8h-2.18v-2.88a1.019,1.019,0,0,0-1.015-1.02H46.885a1.019,1.019,0,0,0-1.015,1.02v2.88H45.305a0.75,0.75,0,0,0-.744.75v1.73a0.741,0.741,0,0,0,.744.74h1.762v0.46h-1.01a2.06,2.06,0,0,0,0,4.12h7.249a2.06,2.06,0,1,0,0-4.12H50.885v-0.46h2.6a0.741,0.741,0,0,0,.744-0.74v-1.5l1.344-1.44a1.359,1.359,0,0,0,.406.06,1.039,1.039,0,0,0,.251-0.02l1.953,3.56a0.832,0.832,0,0,0,.121.62l-1.49,1.49-0.6-.6-0.4.4,0.988,0.99A1.873,1.873,0,0,0,59.718,4573.78ZM47.3,4567.59h1.952v2.3H47.3v-2.3h0Zm3.866,7.98v-0.65h0.944v0.65h1.014v-0.65h0.179a0.868,0.868,0,0,1,.611,1.48,0.843,0.843,0,0,1-.611.25H52.148v-0.44H51.133v0.44H50.189v-0.44H49.175v0.44H48.23v-0.44H47.216v0.44H46.057a0.844,0.844,0,0,1-.611-0.25,0.87,0.87,0,0,1,.611-1.48h0.179v0.65h1.015v-0.65H48.2v0.65H49.21v-0.65h0.945v0.65h1.014Zm4.807-6.79a0.44,0.44,0,1,1,.438-0.44A0.441,0.441,0,0,1,55.975,4568.78Zm3.023,4.9a0.33,0.33,0,1,1,.328-0.33A0.331,0.331,0,0,1,59,4573.68Z" transform="translate(-44 -4566.16)"/>
</svg>
