<svg width="120" height="27" viewBox="0 0 120 27" fill="none" xmlns="http://www.w3.org/2000/svg">
<g clip-path="url(#clip0)">
<path d="M48.72 23.0869C48.5929 22.8752 48.0565 22.0281 47.8659 21.7669V21.5481H48.72V20.9411H47.8659V19.614H47.2235V20.9411H46.2635V21.5481H47.1741C46.9694 22.4587 46.5529 23.5246 46.1082 24.0822C46.2212 24.2587 46.3694 24.5481 46.4329 24.7316C46.7224 24.3081 47.0047 23.6658 47.2235 22.974V26.0869H47.8659V22.5787C48.0424 22.9316 48.24 23.3128 48.3318 23.5458L48.72 23.0869ZM52.5882 23.1928V22.5928H51.0282V21.4775H52.3765V20.8775H51.0282V19.614H50.3859V20.8775H49.7788C49.8424 20.6093 49.8988 20.334 49.9412 20.0446L49.3341 19.9458C49.2212 20.7646 49.0024 21.5764 48.6424 22.0987C48.7835 22.1693 49.0518 22.3387 49.1647 22.4305C49.3341 22.1693 49.4824 21.8446 49.6024 21.4775H50.3859V22.5928H48.7694V23.1928H50.0471C49.6588 24.0328 49.0165 24.8234 48.3459 25.2469C48.4871 25.3669 48.6847 25.5928 48.7835 25.7552C49.4047 25.3105 49.9694 24.5693 50.3859 23.7434V26.0869H51.0282V23.694C51.3671 24.4775 51.8329 25.2399 52.3059 25.6987C52.4188 25.5293 52.6306 25.3034 52.7859 25.1834C52.2424 24.7458 51.7059 23.9764 51.3741 23.1928H52.5882ZM55.4329 23.0799H56.6682V22.4446H53.6047V23.0799H54.7765V24.9716C54.24 25.0705 53.7529 25.1622 53.3718 25.2258L53.5624 25.8893C54.4659 25.6916 55.7294 25.4164 56.9012 25.1481L56.8518 24.5552C56.3788 24.654 55.8988 24.7528 55.4329 24.8375V23.0799ZM57.9459 20.0022C58.2918 20.2493 58.7012 20.6164 58.8988 20.8634L59.3576 20.454C59.1529 20.214 58.7224 19.8681 58.3765 19.6422L57.9459 20.0022ZM59.6047 21.5058V20.8634H57.5788C57.5647 20.4681 57.5576 20.0516 57.5647 19.6422H56.8588C56.8588 20.0516 56.8729 20.4611 56.8871 20.8634H53.3506V21.5058H56.9294C57.1059 24.0469 57.6635 26.1011 58.8282 26.1011C59.4141 26.1011 59.6471 25.7552 59.76 24.4846C59.5765 24.4211 59.3294 24.2658 59.1812 24.1105C59.1388 25.0281 59.0541 25.4093 58.8847 25.4093C58.2706 25.4093 57.7765 23.7293 57.6212 21.5058H59.6047ZM62.0047 21.7458C62.6329 21.2728 63.1694 20.7434 63.5082 20.2493C63.8824 20.7646 64.4612 21.294 65.0965 21.7458H62.0047ZM61.8706 22.3528H65.1741V21.8022C65.5835 22.0916 66.0141 22.3387 66.4235 22.5364C66.5365 22.3387 66.6847 22.1058 66.84 21.9434C65.7388 21.5128 64.5671 20.6516 63.8188 19.614H63.1412C62.6118 20.4752 61.4612 21.4916 60.2541 22.0422C60.3953 22.1834 60.5718 22.4305 60.6424 22.5787C61.0659 22.374 61.4824 22.1199 61.8706 21.8446V22.3528ZM60.6565 23.7011H62.4071C62.2376 24.174 61.9835 24.7387 61.7506 25.1764L60.7059 25.2116L60.7906 25.854C61.9906 25.8046 63.7835 25.7269 65.4635 25.6422C65.5906 25.8116 65.6965 25.9669 65.7741 26.1011L66.3741 25.7269C66.0494 25.2046 65.3788 24.4564 64.7365 23.9128L64.1718 24.2164C64.4471 24.4634 64.7294 24.7599 64.9906 25.0564C64.1294 25.0916 63.2541 25.1269 62.4706 25.1552C62.7247 24.7034 62.9859 24.174 63.2188 23.7011H66.4518V23.0869H60.6565V23.7011ZM70.3553 23.574C70.1929 23.4258 69.6071 22.9175 69.2753 22.6493C69.6282 22.1834 69.9388 21.6681 70.1506 21.1316L69.7835 20.8846L69.6706 20.9058H69.1835V19.6069H68.5341V20.9058H67.4682V21.5058H69.3177C68.8377 22.3881 68.0259 23.2069 67.2212 23.6658C67.32 23.7928 67.4824 24.1034 67.5459 24.2728C67.8777 24.0611 68.2165 23.7928 68.5341 23.4822V26.0869H69.1835V23.2775C69.4729 23.5669 69.7906 23.9058 69.9529 24.1105L70.3553 23.574ZM72.3177 25.2399V22.4728H73.7435V21.8375H72.3177V19.6634H71.6471V21.8375H70.2212V22.4728H71.6471V25.2399H69.9388V25.8893H73.8918V25.2399H72.3177ZM81.2302 21.7034H79.5008V21.3364H80.8984V20.9552H79.5008V20.6022H78.9078V20.9552H77.5808V21.3364H78.9078V21.7034H77.2067V22.0916H81.2302V21.7034ZM79.5502 23.5599H80.602C80.4255 23.7011 80.2208 23.8493 80.0302 23.9764C79.8467 23.8493 79.6772 23.7081 79.5502 23.5669V23.5599ZM78.1667 22.7269H80.2843V23.2069H78.1667V22.7269ZM80.8631 23.4328V22.3669H77.6161V23.5599H78.8231C78.3431 23.9199 77.6867 24.2164 77.0584 24.414C77.1714 24.5128 77.3478 24.7316 77.4255 24.8375C77.8914 24.6611 78.3855 24.4211 78.8231 24.1387V25.0352H79.402V24.0399C79.8396 24.4634 80.4467 24.8164 81.0396 24.9999C81.1172 24.8799 81.2725 24.6752 81.3855 24.5834C81.0467 24.4987 80.7078 24.3646 80.3972 24.1952C80.6584 24.0469 80.9549 23.8493 81.209 23.6446L80.8631 23.4328ZM76.9031 25.2187V20.4893H81.5337V25.2187H76.9031ZM76.289 19.8964V26.0869H76.9031V25.8116H81.5337V26.0869H82.1761V19.8964H76.289ZM85.0067 24.0893H84.6255V19.7622H84.0961V24.0893H83.7361V20.8069H83.2631V25.2681H83.7361V24.6187H85.0067V25.0564H85.4655V20.8069H85.0067V24.0893ZM87.3572 23.6375V24.3716H86.5031V23.6375H87.3572ZM87.8937 24.8446V23.1716H85.9808V25.2328H86.5031V24.8446H87.8937ZM85.9737 22.1552C86.7361 21.9858 87.1878 21.7316 87.4702 21.3505C87.9714 21.6116 88.5502 21.9364 88.889 22.1552H85.9737ZM89.5455 22.1552H88.9808L89.3549 21.7387C88.9667 21.4987 88.2678 21.1387 87.7102 20.8775C87.7243 20.8211 87.7384 20.7716 87.7525 20.7152H89.3337V20.1787H87.8514C87.8655 20.0022 87.8796 19.8116 87.8867 19.6069H87.2796C87.2725 19.8187 87.2584 20.0093 87.2372 20.1787H85.7408V20.7152H87.1172C86.9337 21.2234 86.5314 21.5058 85.6278 21.6822C85.7408 21.7952 85.882 22.0069 85.9384 22.1552H85.5361V22.7058H88.4655V25.3669C88.4655 25.4728 88.4302 25.5011 88.3172 25.5011C88.1972 25.5081 87.8161 25.5081 87.3996 25.494C87.4914 25.6564 87.5902 25.9105 87.6255 26.0869C88.169 26.0869 88.5361 26.0728 88.769 25.9811C89.009 25.8822 89.0796 25.7128 89.0796 25.3811V22.7058H89.5455V22.1552ZM90.4278 23.6446C90.3572 24.2516 90.2231 24.8728 90.0114 25.2964C90.1455 25.3458 90.4067 25.4658 90.5125 25.5434C90.7314 25.0916 90.8937 24.4069 90.9855 23.7434L90.4278 23.6446ZM92.3408 23.1505C92.3972 23.2987 92.4396 23.4328 92.4678 23.5458L92.969 23.3058C92.8702 22.9175 92.5808 22.3175 92.2914 21.8587L91.8184 22.0634C91.9243 22.2399 92.0231 22.4305 92.1149 22.6281L91.1761 22.6634C91.649 22.0775 92.1784 21.3011 92.5808 20.6587L92.0231 20.4187C91.8396 20.7858 91.5855 21.2234 91.3102 21.6469C91.2184 21.5199 91.0984 21.3787 90.9643 21.2375C91.2184 20.8564 91.5149 20.2987 91.769 19.8187L91.1761 19.6069C91.049 19.9881 90.8161 20.4964 90.5972 20.8846C90.5337 20.8281 90.4702 20.7716 90.4067 20.7152L90.089 21.1528C90.3996 21.4493 90.7596 21.8305 90.9784 22.1411C90.8372 22.3387 90.7031 22.5222 90.569 22.6916L90.0749 22.7058L90.1314 23.2846C90.4561 23.2634 90.8302 23.2422 91.2325 23.2211V26.094H91.8184V23.1858L92.3408 23.1505ZM91.9737 23.7716C92.1502 24.2022 92.3408 24.7599 92.4043 25.1269L92.9267 24.9434C92.849 24.5834 92.6584 24.0328 92.4678 23.6093L91.9737 23.7716ZM93.8655 24.0822H95.4537V25.2964H93.8655V24.0822ZM95.4537 20.574V21.7316H93.8655V20.574H95.4537ZM95.4537 23.4893H93.8655V22.3246H95.4537V23.4893ZM96.1172 25.2964V19.9811H93.2231V25.2964H92.5243V25.8893H96.6255V25.2964H96.1172Z" fill="white"/>
<path d="M31.4338 7.86434H28.7385V7.03714C28.7385 6.65111 28.704 6.40524 28.6351 6.29955C28.5662 6.19385 28.4513 6.141 28.2904 6.141C28.1158 6.141 27.9825 6.21223 27.8906 6.35469C27.8033 6.49716 27.7597 6.71315 27.7597 7.00267C27.7597 7.37491 27.8102 7.65524 27.9113 7.84366C28.0078 8.03208 28.2813 8.25956 28.7316 8.52611C30.023 9.29357 30.8364 9.92317 31.1719 10.4149C31.5074 10.9066 31.6751 11.6994 31.6751 12.7931C31.6751 13.5881 31.5809 14.1741 31.3925 14.5509C31.2086 14.9278 30.8502 15.2449 30.3171 15.5022C29.784 15.755 29.1636 15.8813 28.4559 15.8813C27.6792 15.8813 27.0152 15.7343 26.4637 15.4402C25.9168 15.1461 25.5584 14.7715 25.3883 14.3165C25.2183 13.8616 25.1333 13.2159 25.1333 12.3795V11.6488H27.8286V13.0068C27.8286 13.425 27.8654 13.6938 27.9389 13.8133C28.017 13.9328 28.1526 13.9926 28.3456 13.9926C28.5386 13.9926 28.6811 13.9167 28.773 13.7651C28.8695 13.6134 28.9177 13.3882 28.9177 13.0895C28.9177 12.4324 28.8281 12.0027 28.6489 11.8005C28.4651 11.5983 28.0124 11.2605 27.2909 10.7871C26.5694 10.3092 26.0915 9.96223 25.8571 9.74624C25.6227 9.53024 25.4274 9.23153 25.2711 8.8501C25.1195 8.46866 25.0437 7.98153 25.0437 7.3887C25.0437 6.53392 25.1517 5.90892 25.3677 5.5137C25.5882 5.11848 25.9421 4.81058 26.4292 4.58999C26.9164 4.3648 27.5046 4.25221 28.1939 4.25221C28.9476 4.25221 29.5887 4.37399 30.1172 4.61756C30.6503 4.86113 31.0018 5.16903 31.1719 5.54127C31.3465 5.90892 31.4338 6.53622 31.4338 7.42317V7.86434ZM39.2234 11.0215C39.2234 12.1428 39.1958 12.9379 39.1406 13.4066C39.0901 13.8708 38.9246 14.2959 38.6443 14.6819C38.3686 15.0679 37.994 15.3643 37.5207 15.5711C37.0473 15.7779 36.4959 15.8813 35.8663 15.8813C35.2688 15.8813 34.7312 15.7848 34.2532 15.5918C33.7799 15.3942 33.3984 15.1001 33.1089 14.7095C32.8194 14.3188 32.6471 13.8938 32.5919 13.4342C32.5368 12.9746 32.5092 12.1704 32.5092 11.0215V9.11205C32.5092 7.99072 32.5345 7.19798 32.585 6.73383C32.6402 6.26508 32.8056 5.83769 33.0813 5.45166C33.3617 5.06563 33.7385 4.76922 34.2119 4.56241C34.6852 4.35561 35.2367 4.25221 35.8663 4.25221C36.4637 4.25221 36.9991 4.35102 37.4724 4.54863C37.9504 4.74164 38.3341 5.03346 38.6236 5.42409C38.9131 5.81471 39.0855 6.2398 39.1406 6.69936C39.1958 7.15892 39.2234 7.96315 39.2234 9.11205V11.0215ZM36.3212 7.35423C36.3212 6.83493 36.2914 6.50405 36.2316 6.36159C36.1765 6.21453 36.0593 6.141 35.8801 6.141C35.7284 6.141 35.6112 6.20074 35.5285 6.32023C35.4504 6.43512 35.4113 6.77979 35.4113 7.35423V12.5656C35.4113 13.2136 35.4366 13.6134 35.4871 13.7651C35.5423 13.9167 35.6664 13.9926 35.8594 13.9926C36.057 13.9926 36.1834 13.9052 36.2385 13.7306C36.2937 13.556 36.3212 13.1401 36.3212 12.4829V7.35423ZM46.7923 4.48659V15.647H44.2486L42.739 10.5734V15.647H40.3125V4.48659H42.739L44.3658 9.51186V4.48659H46.7923ZM54.5956 11.0215C54.5956 12.1428 54.568 12.9379 54.5129 13.4066C54.4623 13.8708 54.2969 14.2959 54.0165 14.6819C53.7408 15.0679 53.3663 15.3643 52.8929 15.5711C52.4196 15.7779 51.8681 15.8813 51.2385 15.8813C50.6411 15.8813 50.1034 15.7848 49.6255 15.5918C49.1521 15.3942 48.7707 15.1001 48.4812 14.7095C48.1916 14.3188 48.0193 13.8938 47.9642 13.4342C47.909 12.9746 47.8814 12.1704 47.8814 11.0215V9.11205C47.8814 7.99072 47.9067 7.19798 47.9573 6.73383C48.0124 6.26508 48.1779 5.83769 48.4536 5.45166C48.7339 5.06563 49.1108 4.76922 49.5841 4.56241C50.0574 4.35561 50.6089 4.25221 51.2385 4.25221C51.8359 4.25221 52.3713 4.35102 52.8447 4.54863C53.3226 4.74164 53.7063 5.03346 53.9959 5.42409C54.2854 5.81471 54.4577 6.2398 54.5129 6.69936C54.568 7.15892 54.5956 7.96315 54.5956 9.11205V11.0215ZM51.6935 7.35423C51.6935 6.83493 51.6636 6.50405 51.6039 6.36159C51.5487 6.21453 51.4315 6.141 51.2523 6.141C51.1006 6.141 50.9835 6.20074 50.9007 6.32023C50.8226 6.43512 50.7836 6.77979 50.7836 7.35423V12.5656C50.7836 13.2136 50.8088 13.6134 50.8594 13.7651C50.9145 13.9167 51.0386 13.9926 51.2316 13.9926C51.4292 13.9926 51.5556 13.9052 51.6108 13.7306C51.6659 13.556 51.6935 13.1401 51.6935 12.4829V7.35423ZM60.5377 4.48659V6.72004L58.3732 13.4135H60.5377V15.647H55.1884V14.027L57.4219 6.72004H55.4504V4.48659H60.5377ZM66.3074 4.48659L67.9688 15.647H64.9977L64.8529 13.641H63.812L63.6397 15.647H60.6342L62.1094 4.48659H66.3074ZM64.7702 11.6626C64.6232 10.3988 64.4761 8.83861 64.329 6.98199C64.0349 9.11434 63.8511 10.6745 63.7776 11.6626H64.7702ZM75.3791 4.48659L73.7178 9.52565L75.5377 15.647H72.5391L71.3672 10.863V15.647H68.4651V4.48659H71.3672V8.82252L72.6563 4.48659H75.3791ZM78.9499 4.48659V15.647H76.0478V4.48659H78.9499ZM89.3865 9.35331H86.4844V7.40938C86.4844 6.84412 86.4522 6.49256 86.3879 6.35469C86.3281 6.21223 86.1926 6.141 85.9812 6.141C85.7422 6.141 85.5905 6.22602 85.5262 6.39605C85.4619 6.56609 85.4297 6.93374 85.4297 7.49899V12.6828C85.4297 13.2251 85.4619 13.579 85.5262 13.7444C85.5905 13.9098 85.7353 13.9926 85.9605 13.9926C86.1765 13.9926 86.3166 13.9098 86.381 13.7444C86.4499 13.579 86.4844 13.1906 86.4844 12.5794V11.1801H89.3865V11.6143C89.3865 12.7678 89.3038 13.5859 89.1383 14.0684C88.9775 14.5509 88.6167 14.9737 88.0561 15.3368C87.5 15.6998 86.813 15.8813 85.9949 15.8813C85.1448 15.8813 84.4439 15.7274 83.8925 15.4195C83.341 15.1116 82.9756 14.6865 82.7964 14.1442C82.6172 13.5973 82.5276 12.777 82.5276 11.6833V8.42271C82.5276 7.61848 82.5552 7.01646 82.6103 6.61664C82.6654 6.21223 82.8286 5.8239 83.0997 5.45166C83.3755 5.07942 83.7546 4.7876 84.2371 4.5762C84.7243 4.36021 85.2826 4.25221 85.9122 4.25221C86.767 4.25221 87.4724 4.41765 88.0285 4.74854C88.5846 5.07942 88.9499 5.49302 89.1245 5.98934C89.2992 6.48107 89.3865 7.24854 89.3865 8.29173V9.35331ZM97.0588 11.0215C97.0588 12.1428 97.0313 12.9379 96.9761 13.4066C96.9256 13.8708 96.7601 14.2959 96.4798 14.6819C96.204 15.0679 95.8295 15.3643 95.3562 15.5711C94.8828 15.7779 94.3313 15.8813 93.7018 15.8813C93.1043 15.8813 92.5666 15.7848 92.0887 15.5918C91.6154 15.3942 91.2339 15.1001 90.9444 14.7095C90.6549 14.3188 90.4825 13.8938 90.4274 13.4342C90.3722 12.9746 90.3447 12.1704 90.3447 11.0215V9.11205C90.3447 7.99072 90.3699 7.19798 90.4205 6.73383C90.4756 6.26508 90.6411 5.83769 90.9168 5.45166C91.1972 5.06563 91.574 4.76922 92.0473 4.56241C92.5207 4.35561 93.0722 4.25221 93.7018 4.25221C94.2992 4.25221 94.8346 4.35102 95.3079 4.54863C95.7859 4.74164 96.1696 5.03346 96.4591 5.42409C96.7486 5.81471 96.921 6.2398 96.9761 6.69936C97.0313 7.15892 97.0588 7.96315 97.0588 9.11205V11.0215ZM94.1567 7.35423C94.1567 6.83493 94.1268 6.50405 94.0671 6.36159C94.012 6.21453 93.8948 6.141 93.7155 6.141C93.5639 6.141 93.4467 6.20074 93.364 6.32023C93.2859 6.43512 93.2468 6.77979 93.2468 7.35423V12.5656C93.2468 13.2136 93.2721 13.6134 93.3226 13.7651C93.3778 13.9167 93.5018 13.9926 93.6949 13.9926C93.8925 13.9926 94.0188 13.9052 94.074 13.7306C94.1291 13.556 94.1567 13.1401 94.1567 12.4829V7.35423ZM99.9196 13.3722V15.647H97.8171V13.3722H99.9196ZM103.656 4.48659V13.4135H105.421V15.647H100.754V4.48659H103.656ZM111.976 4.48659V6.72004H110.253V15.647H107.351V6.72004H105.634V4.48659H111.976ZM112.638 4.48659H114.809C116.211 4.48659 117.158 4.55092 117.649 4.6796C118.146 4.80828 118.523 5.01967 118.78 5.31379C119.037 5.60791 119.198 5.93649 119.262 6.29955C119.327 6.658 119.359 7.36572 119.359 8.42271V12.3313C119.359 13.3331 119.311 14.004 119.214 14.3441C119.122 14.6796 118.959 14.9438 118.725 15.1369C118.49 15.3253 118.201 15.4586 117.856 15.5367C117.511 15.6102 116.992 15.647 116.298 15.647H112.638V4.48659ZM115.54 6.39605V13.7375C115.958 13.7375 116.216 13.6548 116.312 13.4893C116.409 13.3193 116.457 12.862 116.457 12.1176V7.78162C116.457 7.27611 116.441 6.95212 116.409 6.80966C116.376 6.66719 116.303 6.56379 116.188 6.49945C116.073 6.43052 115.857 6.39605 115.54 6.39605Z" fill="white"/>
<g clip-path="url(#clip1)">
<path d="M10.5089 2.60812L10.5883 2.6573L10.6677 2.60812C10.972 2.42006 11.292 2.25296 11.6194 2.11134L11.8982 1.99066L11.6337 1.8411C11.3179 1.66234 10.9818 1.51481 10.6351 1.40239L10.5883 1.38696L10.5416 1.40243C10.1948 1.51485 9.85875 1.66234 9.54301 1.84114L9.27843 1.9907L9.55723 2.11139C9.88456 2.253 10.2046 2.4201 10.5089 2.60812Z" fill="white"/>
<path d="M21.1765 8.93866C21.1765 6.61177 19.9319 4.43614 17.9265 3.25001C16.7405 1.24461 14.5647 0 12.2377 0C11.6808 0 11.1263 0.0704779 10.5882 0.209035C10.0502 0.0704779 9.49562 0 8.93883 0C6.61177 0 4.43597 1.24461 3.25001 3.25001C1.24461 4.43614 0 6.61177 0 8.93866C0 9.49562 0.0706434 10.0502 0.209035 10.5882C0.0706434 11.1263 0 11.6808 0 12.2378C0 14.5647 1.24461 16.7403 3.25001 17.9265C4.43597 19.9319 6.61177 21.1765 8.93883 21.1765C9.49562 21.1765 10.0502 21.106 10.5882 20.9674C11.1263 21.106 11.6808 21.1765 12.2377 21.1765C14.5647 21.1765 16.7405 19.9319 17.9265 17.9265C19.9319 16.7403 21.1765 14.5647 21.1765 12.2378C21.1765 11.6808 21.1058 11.1263 20.9674 10.5882C21.1058 10.0502 21.1765 9.49562 21.1765 8.93866ZM18.5649 13.8148L18.5025 13.8664L18.5105 13.9465C18.5309 14.1559 18.5414 14.366 18.5414 14.5705C18.5414 15.6707 18.2521 16.7534 17.7052 17.705C16.7536 18.252 15.6705 18.5412 14.5704 18.5412C14.366 18.5412 14.1561 18.5308 13.9467 18.5106L13.8662 18.5023L13.815 18.5652C12.9748 19.5898 11.8595 20.3111 10.5882 20.6549C9.31703 20.3111 8.2017 19.5898 7.36143 18.5652L7.31022 18.5023L7.22978 18.5106C7.02037 18.5308 6.81047 18.5412 6.60611 18.5412C5.50592 18.5412 4.42295 18.252 3.47129 17.705C2.92446 16.7534 2.63515 15.6707 2.63515 14.5705C2.63515 14.366 2.64565 14.1559 2.66608 13.9465L2.67398 13.8664L2.61161 13.8148C1.58699 12.9746 0.86534 11.8596 0.521884 10.5882C0.86534 9.31686 1.58699 8.20187 2.61157 7.36164L2.67394 7.31006L2.66604 7.22994C2.64561 7.02058 2.63511 6.81051 2.63511 6.60594C2.63511 5.50576 2.92442 4.42311 3.47125 3.47145C4.4229 2.92442 5.50588 2.63531 6.60607 2.63531C6.81043 2.63531 7.02033 2.64565 7.22974 2.66592L7.31018 2.67415L7.36139 2.61124C8.2017 1.58666 9.31703 0.86534 10.5882 0.521553C11.8595 0.86534 12.9748 1.58666 13.815 2.6112L13.8662 2.67411L13.9467 2.66588C14.1561 2.64561 14.366 2.63527 14.5704 2.63527C15.6705 2.63527 16.7536 2.92438 17.7052 3.47141C18.2521 4.42307 18.5414 5.50572 18.5414 6.6059C18.5414 6.81047 18.5309 7.02054 18.5105 7.2299L18.5025 7.31002L18.5649 7.36159C19.5895 8.20187 20.3111 9.31682 20.6546 10.5882C20.3111 11.8596 19.5895 12.9746 18.5649 13.8148Z" fill="white"/>
<path d="M16.1751 4.88897L16.1965 4.97972L16.2874 5.00139C16.6343 5.0832 16.9776 5.19115 17.3085 5.32181L17.5911 5.4339L17.5096 5.14094C17.4123 4.79095 17.2798 4.44993 17.1154 4.12707L17.0931 4.08306L17.0493 4.06073C16.7266 3.89673 16.3855 3.76401 16.0356 3.66669L15.7426 3.58521L15.8544 3.86778C15.9854 4.19858 16.0932 4.54237 16.1751 4.88897Z" fill="white"/>
<path d="M12.851 4.89994L12.9077 4.98688L13.0095 4.96521C13.3062 4.90163 13.61 4.85556 13.9122 4.82905L14.1126 4.81118L14.0399 4.62349C13.9098 4.2883 13.7452 3.96441 13.551 3.66083L13.4943 3.57178L13.3913 3.59448C13.0391 3.67216 12.6932 3.78528 12.3632 3.93141L12.1791 4.01218L12.3084 4.16658C12.5036 4.39936 12.6863 4.64619 12.851 4.89994Z" fill="white"/>
<path d="M18.5193 10.5882L18.5684 10.668C18.7563 10.9719 18.9233 11.292 19.0652 11.6193L19.1859 11.8981L19.3356 11.6337C19.5142 11.3178 19.6619 10.9819 19.7743 10.6349L19.7894 10.5882L19.7743 10.5415C19.6619 10.1945 19.5142 9.85864 19.3356 9.54269L19.1859 9.27832L19.0652 9.55713C18.9233 9.88445 18.7563 10.2045 18.5684 10.5084L18.5193 10.5882Z" fill="white"/>
<path d="M16.5527 7.1366L16.3652 7.06372L16.3475 7.26415C16.3207 7.56637 16.2749 7.86996 16.2113 8.16663L16.1893 8.26875L16.2766 8.32517C16.5302 8.4902 16.7769 8.67276 17.0098 8.86769L17.164 8.99698L17.2453 8.81338C17.3911 8.48296 17.5043 8.1371 17.5818 7.78504L17.6046 7.68222L17.5157 7.62515C17.2121 7.43125 16.8881 7.26655 16.5527 7.1366Z" fill="white"/>
<path d="M13.7401 6.82573L13.7856 6.99419C13.806 7.06947 13.8249 7.14512 13.8429 7.2211L13.8642 7.31254L13.9555 7.33389C14.0315 7.35142 14.1071 7.37066 14.1822 7.39096L14.3509 7.43671L14.3718 7.26308C14.3847 7.15579 14.3947 7.04544 14.4014 6.93542L14.4116 6.76489L14.2414 6.77519C14.1312 6.78173 14.021 6.79169 13.9133 6.80476L13.7401 6.82573Z" fill="white"/>
<path d="M16.2875 16.175L16.1966 16.1967L16.1751 16.2874C16.0933 16.634 15.9855 16.9777 15.8545 17.3085L15.7428 17.5911L16.0357 17.5096C16.3857 17.4123 16.7267 17.2795 17.0494 17.1156L17.0933 17.0932L17.1156 17.0492C17.2799 16.7264 17.4125 16.3853 17.5098 16.0357L17.5913 15.7424L17.3087 15.8545C16.9777 15.9852 16.6344 16.0932 16.2875 16.175Z" fill="white"/>
<path d="M17.2453 12.3628L17.164 12.1792L17.0098 12.3085C16.7769 12.5034 16.5302 12.686 16.2766 12.851L16.1893 12.9074L16.2113 13.0095C16.2749 13.3063 16.3206 13.6099 16.3475 13.912L16.3652 14.1125L16.5527 14.0396C16.8881 13.9096 17.2122 13.7449 17.5158 13.551L17.6046 13.494L17.5819 13.3911C17.5043 13.0391 17.3911 12.6932 17.2453 12.3628Z" fill="white"/>
<path d="M15.9922 10.5884L15.8648 10.4752C15.7835 10.403 15.6987 10.3322 15.6135 10.2652L15.4761 10.1572L15.3889 10.3088C15.3501 10.3759 15.3104 10.4426 15.2695 10.5089L15.2203 10.5883L15.2695 10.6677C15.3104 10.7341 15.3501 10.8007 15.3889 10.8678L15.4761 11.0194L15.6135 10.9115C15.6987 10.8444 15.7835 10.7736 15.8648 10.7014L15.9922 10.5884Z" fill="white"/>
<path d="M15.2159 8.67053L15.0937 8.61209C14.4812 8.31814 13.8275 8.12181 13.1481 8.02833C13.0546 7.34932 12.8586 6.69504 12.5645 6.08308L12.5059 5.96069L12.378 6.00573C11.7354 6.23197 11.1339 6.55549 10.5883 6.96839C10.0427 6.55545 9.44123 6.23193 8.79862 6.00573L8.67073 5.96069L8.61213 6.08308C8.31801 6.69542 8.12201 7.34932 8.02853 8.02833C7.34915 8.12185 6.69545 8.31818 6.08294 8.61209L5.96072 8.67053L6.00577 8.79842C6.23184 9.44099 6.55553 10.0427 6.96863 10.5883C6.55553 11.1339 6.23184 11.7356 6.00577 12.3781L5.96072 12.506L6.08294 12.5645C6.69528 12.8584 7.34919 13.0548 8.02853 13.1482C8.12205 13.8272 8.31805 14.4812 8.61213 15.0935L8.67073 15.2159L8.79862 15.1708C9.44119 14.9446 10.0427 14.6211 10.5883 14.2082C11.1339 14.6211 11.7354 14.9446 12.378 15.1708L12.5059 15.2159L12.5645 15.0935C12.8586 14.4815 13.0546 13.8272 13.1481 13.1482C13.8275 13.0547 14.4814 12.8584 15.0937 12.5645L15.2159 12.506L15.1709 12.3781C14.9448 11.7356 14.6212 11.1339 14.2081 10.5883C14.6212 10.0427 14.9448 9.44099 15.1709 8.79842L15.2159 8.67053ZM12.0742 12.0742C11.6053 12.3437 11.1057 12.5511 10.5883 12.691C10.0709 12.551 9.57131 12.3437 9.10237 12.0742C8.83282 11.6052 8.62532 11.1057 8.48544 10.5883C8.62532 10.0709 8.83287 9.57127 9.10237 9.10237C9.57131 8.83283 10.0709 8.62549 10.5883 8.48557C11.1057 8.62553 11.6053 8.83283 12.0742 9.10237C12.3438 9.57132 12.5513 10.0709 12.6912 10.5883C12.5512 11.1057 12.3438 11.6053 12.0742 12.0742Z" fill="white"/>
<path d="M10.6677 18.5685L10.5883 18.5193L10.5089 18.5685C10.2046 18.7565 9.88456 18.9236 9.55723 19.0652L9.27843 19.1859L9.54301 19.3355C9.85875 19.5143 10.1948 19.6618 10.5416 19.7742L10.5883 19.7897L10.635 19.7742C10.9818 19.6618 11.3178 19.5143 11.6336 19.3355L11.8982 19.1859L11.6193 19.0652C11.2921 18.9236 10.972 18.7565 10.6677 18.5685Z" fill="white"/>
<path d="M13.0095 16.2111L12.9077 16.1895L12.851 16.2764C12.6863 16.5301 12.5035 16.777 12.3083 17.0097L12.179 17.1637L12.3631 17.2449C12.6931 17.391 13.039 17.5041 13.3912 17.5818L13.4942 17.6045L13.5509 17.5155C13.7452 17.2119 13.9097 16.888 14.0398 16.5528L14.1125 16.3651L13.9121 16.3472C13.6099 16.3208 13.3061 16.2747 13.0095 16.2111Z" fill="white"/>
<path d="M14.3718 13.9134L14.3509 13.7397L14.1822 13.7855C14.1071 13.8058 14.0313 13.825 13.9555 13.8426L13.8642 13.8642L13.8429 13.9554C13.8249 14.0313 13.806 14.107 13.7856 14.1823L13.7401 14.3507L13.9134 14.3717C14.021 14.3848 14.1312 14.3944 14.2414 14.4013L14.4116 14.4116L14.4015 14.241C14.3947 14.131 14.3847 14.0207 14.3718 13.9134Z" fill="white"/>
<path d="M5.00139 16.2874L4.97988 16.1966L4.88893 16.1749C4.54204 16.0931 4.19875 15.9852 3.86782 15.8545L3.58521 15.7424L3.66669 16.0357C3.76397 16.3853 3.89653 16.7264 4.06085 17.0492L4.08323 17.0932L4.12707 17.1156C4.44972 17.2795 4.79078 17.4123 5.14082 17.5096L5.43373 17.5911L5.32197 17.3085C5.19099 16.9777 5.0832 16.634 5.00139 16.2874Z" fill="white"/>
<path d="M8.32544 16.2764L8.26869 16.1895L8.16695 16.2111C7.87023 16.2747 7.56648 16.3208 7.26426 16.3473L7.06383 16.3652L7.13654 16.5528C7.26666 16.888 7.43119 17.2119 7.62542 17.5155L7.68216 17.6046L7.78515 17.5818C8.13738 17.5042 8.48323 17.3911 8.81329 17.2449L8.99742 17.1638L8.86813 17.0098C8.67283 16.777 8.4901 16.5301 8.32544 16.2764Z" fill="white"/>
<path d="M10.5882 15.9923L10.7013 15.8647C10.7735 15.7836 10.8441 15.699 10.9114 15.6134L11.0193 15.4762L10.868 15.3893C10.8004 15.3504 10.7338 15.3105 10.6676 15.2696L10.5882 15.2205L10.5088 15.2696C10.4426 15.3105 10.3759 15.3505 10.3083 15.3893L10.157 15.4762L10.265 15.6134C10.3322 15.699 10.4028 15.7836 10.4751 15.8647L10.5882 15.9923Z" fill="white"/>
<path d="M4.88898 5.00131L4.97994 4.97963L5.00144 4.88889C5.08325 4.54233 5.19104 4.19854 5.32203 3.86778L5.43378 3.58521L5.14087 3.66669C4.79084 3.76401 4.44982 3.89673 4.12713 4.06073L4.08329 4.08306L4.06091 4.12707C3.89659 4.44993 3.76403 4.79095 3.66675 5.14094L3.58527 5.4339L3.86788 5.32181C4.1988 5.19107 4.5421 5.08312 4.88898 5.00131Z" fill="white"/>
<path d="M8.16695 4.96516L8.26869 4.98684L8.32544 4.8999C8.4901 4.64615 8.67287 4.39931 8.86813 4.16658L8.99742 4.01218L8.81329 3.93141C8.48323 3.78528 8.13738 3.67216 7.78515 3.59448L7.68216 3.57178L7.62542 3.66083C7.43115 3.96441 7.26666 4.2883 7.13654 4.62349L7.06383 4.81118L7.26426 4.82905C7.56648 4.85552 7.87023 4.90159 8.16695 4.96516Z" fill="white"/>
<path d="M10.5882 5.18433L10.4751 5.31188C10.4028 5.39303 10.3322 5.47761 10.265 5.56322L10.157 5.70037L10.3083 5.78735C10.3759 5.82619 10.4426 5.86606 10.5088 5.90696L10.5882 5.95614L10.6676 5.90696C10.7338 5.86606 10.8004 5.82615 10.868 5.78735L11.0193 5.70037L10.9114 5.56322C10.8441 5.47761 10.7735 5.39303 10.7013 5.31188L10.5882 5.18433Z" fill="white"/>
<path d="M2.11135 9.55713L1.99066 9.27832L1.84094 9.54269C1.66234 9.8586 1.51469 10.1945 1.40223 10.5415L1.38713 10.5882L1.40223 10.6349C1.51469 10.9819 1.66234 11.3177 1.84094 11.6337L1.99066 11.8981L2.11135 11.6193C2.25318 11.2919 2.42023 10.9718 2.60817 10.668L2.65735 10.5882L2.60817 10.5084C2.42027 10.2045 2.25318 9.88441 2.11135 9.55713Z" fill="white"/>
<path d="M3.93103 8.81339L4.01234 8.99698L4.16653 8.86769C4.39948 8.67276 4.64615 8.4902 4.89969 8.32517L4.987 8.26875L4.96499 8.16663C4.90142 7.86992 4.85568 7.56633 4.82884 7.26415L4.81113 7.06372L4.62361 7.1366C4.28822 7.26655 3.9642 7.43125 3.66061 7.62515L3.57173 7.68222L3.59444 7.78504C3.67199 8.1371 3.78527 8.48296 3.93103 8.81339Z" fill="white"/>
<path d="M6.80458 7.26308L6.82555 7.43671L6.99418 7.39096C7.06929 7.3707 7.14494 7.35142 7.22096 7.33389L7.3122 7.31254L7.33354 7.2211C7.35161 7.14512 7.37052 7.06947 7.39078 6.99419L7.43636 6.82573L7.26306 6.80476C7.15544 6.79169 7.04526 6.78173 6.93503 6.77519L6.76488 6.76489L6.77505 6.93542C6.78171 7.04544 6.79168 7.15579 6.80458 7.26308Z" fill="white"/>
<path d="M4.62371 14.0396L4.81124 14.1125L4.82894 13.912C4.85574 13.6098 4.90149 13.3062 4.9651 13.0095L4.9871 12.9074L4.89979 12.851C4.64625 12.686 4.39958 12.5034 4.16664 12.3085L4.01245 12.1792L3.93114 12.3628C3.78538 12.6932 3.6721 13.0391 3.59455 13.3911L3.57184 13.494L3.66072 13.551C3.96431 13.7449 4.28832 13.9096 4.62371 14.0396Z" fill="white"/>
<path d="M5.78751 10.3088L5.70032 10.1572L5.56301 10.2652C5.47772 10.3323 5.39301 10.403 5.31166 10.4752L5.18427 10.5884L5.31166 10.7015C5.39297 10.7737 5.47772 10.8445 5.56301 10.9115L5.70032 11.0195L5.78751 10.8679C5.82635 10.8008 5.86606 10.7341 5.90696 10.6678L5.95614 10.5884L5.90696 10.509C5.86606 10.4426 5.82635 10.3759 5.78751 10.3088Z" fill="white"/>
<path d="M7.43636 14.3507L7.39078 14.1823C7.37052 14.107 7.35161 14.0313 7.33354 13.9554L7.3122 13.8642L7.22096 13.8426C7.1451 13.825 7.06933 13.8058 6.99418 13.7855L6.82555 13.7397L6.80458 13.9134C6.79168 14.0207 6.78175 14.131 6.77505 14.241L6.76488 14.4116L6.93503 14.4013C7.04522 14.3944 7.15544 14.3848 7.26306 14.3717L7.43636 14.3507Z" fill="white"/>
<path d="M11.4842 9.75818L11.4619 9.71451L11.4182 9.69217C11.1659 9.56325 10.9026 9.4539 10.6352 9.36658L10.5883 9.35107L10.5414 9.36658C10.2741 9.4539 10.0107 9.56325 9.75837 9.69217L9.71469 9.71451L9.69236 9.75818C9.56361 10.0105 9.45409 10.2739 9.36677 10.541L9.35147 10.5881L9.36677 10.6349C9.45409 10.9024 9.56361 11.1657 9.69236 11.4181L9.71469 11.4617L9.75837 11.4841C10.0107 11.613 10.274 11.7223 10.5414 11.8097L10.5883 11.8252L10.6352 11.8097C10.9026 11.7223 11.1659 11.613 11.4183 11.4841L11.4619 11.4617L11.4843 11.4181C11.6131 11.1657 11.7226 10.9024 11.8099 10.6349L11.8252 10.5881L11.8099 10.541C11.7225 10.2739 11.613 10.0105 11.4842 9.75818Z" fill="white"/>
</g>
</g>
<defs>
<clipPath id="clip0">
<rect width="120" height="26.57" fill="white"/>
</clipPath>
<clipPath id="clip1">
<rect width="21.1765" height="21.1765" fill="white"/>
</clipPath>
</defs>
</svg>
