<svg width="160" height="36" viewBox="0 0 160 36" fill="none" xmlns="http://www.w3.org/2000/svg">
<path d="M64.96 30.4493C64.7906 30.167 64.0753 29.0376 63.8212 28.6893V28.3976H64.96V27.5882H63.8212V25.8188H62.9647V27.5882H61.6847V28.3976H62.8988C62.6259 29.6117 62.0706 31.0329 61.4776 31.7764C61.6282 32.0117 61.8259 32.3976 61.9106 32.6423C62.2965 32.0776 62.6729 31.2211 62.9647 30.2988V34.4493H63.8212V29.7717C64.0565 30.2423 64.32 30.7505 64.4424 31.0611L64.96 30.4493ZM70.1176 30.5905V29.7905H68.0376V28.3035H69.8353V27.5035H68.0376V25.8188H67.1812V27.5035H66.3718C66.4565 27.1458 66.5318 26.7788 66.5882 26.3929L65.7788 26.2611C65.6282 27.3529 65.3365 28.4352 64.8565 29.1317C65.0447 29.2258 65.4024 29.4517 65.5529 29.574C65.7788 29.2258 65.9765 28.7929 66.1365 28.3035H67.1812V29.7905H65.0259V30.5905H66.7294C66.2118 31.7105 65.3553 32.7646 64.4612 33.3293C64.6494 33.4893 64.9129 33.7905 65.0447 34.007C65.8729 33.414 66.6259 32.4258 67.1812 31.3246V34.4493H68.0376V31.2588C68.4894 32.3035 69.1106 33.3199 69.7412 33.9317C69.8918 33.7058 70.1741 33.4046 70.3812 33.2446C69.6565 32.6611 68.9412 31.6352 68.4988 30.5905H70.1176ZM73.9106 30.4399H75.5576V29.5929H71.4729V30.4399H73.0353V32.9623C72.32 33.094 71.6706 33.2164 71.1624 33.3011L71.4165 34.1858C72.6212 33.9223 74.3059 33.5552 75.8682 33.1976L75.8024 32.407C75.1718 32.5388 74.5318 32.6705 73.9106 32.7835V30.4399ZM77.2612 26.3364C77.7224 26.6658 78.2682 27.1552 78.5318 27.4846L79.1435 26.9388C78.8706 26.6188 78.2965 26.1576 77.8353 25.8564L77.2612 26.3364ZM79.4729 28.3411V27.4846H76.7718C76.7529 26.9576 76.7435 26.4023 76.7529 25.8564H75.8118C75.8118 26.4023 75.8306 26.9482 75.8494 27.4846H71.1341V28.3411H75.9059C76.1412 31.7293 76.8847 34.4682 78.4376 34.4682C79.2188 34.4682 79.5294 34.007 79.68 32.3129C79.4353 32.2282 79.1059 32.0211 78.9082 31.814C78.8518 33.0376 78.7388 33.5458 78.5129 33.5458C77.6941 33.5458 77.0353 31.3058 76.8282 28.3411H79.4729ZM82.6729 28.6611C83.5106 28.0305 84.2259 27.3246 84.6776 26.6658C85.1765 27.3529 85.9482 28.0588 86.7953 28.6611H82.6729ZM82.4941 29.4705H86.8988V28.7364C87.4447 29.1223 88.0188 29.4517 88.5647 29.7152C88.7153 29.4517 88.9129 29.1411 89.12 28.9246C87.6518 28.3505 86.0894 27.2023 85.0918 25.8188H84.1882C83.4824 26.967 81.9482 28.3223 80.3388 29.0564C80.5271 29.2446 80.7624 29.574 80.8565 29.7717C81.4212 29.4988 81.9765 29.1599 82.4941 28.7929V29.4705ZM80.8753 31.2682H83.2094C82.9835 31.8988 82.6447 32.6517 82.3341 33.2352L80.9412 33.2823L81.0541 34.1388C82.6541 34.0729 85.0447 33.9693 87.2847 33.8564C87.4541 34.0823 87.5953 34.2893 87.6988 34.4682L88.4988 33.9693C88.0659 33.2729 87.1718 32.2752 86.3153 31.5505L85.5624 31.9552C85.9294 32.2846 86.3059 32.6799 86.6541 33.0752C85.5059 33.1223 84.3388 33.1693 83.2941 33.207C83.6329 32.6046 83.9812 31.8988 84.2918 31.2682H88.6024V30.4493H80.8753V31.2682ZM93.8071 31.0988C93.5906 30.9011 92.8094 30.2235 92.3671 29.8658C92.8376 29.2446 93.2518 28.5576 93.5341 27.8423L93.0447 27.5129L92.8941 27.5411H92.2447V25.8093H91.3788V27.5411H89.9576V28.3411H92.4235C91.7835 29.5176 90.7012 30.6093 89.6282 31.2211C89.76 31.3905 89.9765 31.8046 90.0612 32.0305C90.5035 31.7482 90.9553 31.3905 91.3788 30.9764V34.4493H92.2447V30.7035C92.6306 31.0893 93.0541 31.5411 93.2706 31.814L93.8071 31.0988ZM96.4235 33.3199V29.6305H98.3247V28.7835H96.4235V25.8846H95.5294V28.7835H93.6282V29.6305H95.5294V33.3199H93.2518V34.1858H98.5224V33.3199H96.4235ZM108.307 28.6046H106.001V28.1152H107.865V27.607H106.001V27.1364H105.21V27.607H103.441V28.1152H105.21V28.6046H102.942V29.1223H108.307V28.6046ZM106.067 31.0799H107.469C107.234 31.2682 106.961 31.4658 106.707 31.6352C106.462 31.4658 106.236 31.2776 106.067 31.0893V31.0799ZM104.222 29.9693H107.046V30.6093H104.222V29.9693ZM107.818 30.9105V29.4893H103.488V31.0799H105.098C104.458 31.5599 103.582 31.9552 102.745 32.2188C102.895 32.3505 103.13 32.6423 103.234 32.7835C103.855 32.5482 104.514 32.2282 105.098 31.8517V33.047H105.869V31.7199C106.453 32.2846 107.262 32.7552 108.053 32.9999C108.156 32.8399 108.363 32.567 108.514 32.4446C108.062 32.3317 107.61 32.1529 107.196 31.927C107.545 31.7293 107.94 31.4658 108.279 31.1929L107.818 30.9105ZM102.538 33.2917V26.9858H108.712V33.2917H102.538ZM101.719 26.1952V34.4493H102.538V34.0823H108.712V34.4493H109.568V26.1952H101.719ZM113.342 31.7858H112.834V26.0164H112.128V31.7858H111.648V27.4093H111.018V33.3576H111.648V32.4917H113.342V33.0752H113.954V27.4093H113.342V31.7858ZM116.476 31.1835V32.1623H115.338V31.1835H116.476ZM117.192 32.7929V30.5623H114.641V33.3105H115.338V32.7929H117.192ZM114.632 29.207C115.648 28.9811 116.25 28.6423 116.627 28.134C117.295 28.4823 118.067 28.9152 118.519 29.207H114.632ZM119.394 29.207H118.641L119.14 28.6517C118.622 28.3317 117.69 27.8517 116.947 27.5035C116.966 27.4282 116.985 27.3623 117.003 27.287H119.112V26.5717H117.135C117.154 26.3364 117.173 26.0823 117.182 25.8093H116.373C116.363 26.0917 116.345 26.3458 116.316 26.5717H114.321V27.287H116.156C115.912 27.9646 115.375 28.3411 114.17 28.5764C114.321 28.727 114.509 29.0093 114.585 29.207H114.048V29.9411H117.954V33.4893C117.954 33.6305 117.907 33.6682 117.756 33.6682C117.596 33.6776 117.088 33.6776 116.533 33.6588C116.655 33.8752 116.787 34.214 116.834 34.4493C117.559 34.4493 118.048 34.4305 118.359 34.3082C118.679 34.1764 118.773 33.9505 118.773 33.5082V29.9411H119.394V29.207ZM120.57 31.1929C120.476 32.0023 120.297 32.8305 120.015 33.3952C120.194 33.4611 120.542 33.6211 120.683 33.7246C120.975 33.1223 121.192 32.2093 121.314 31.3246L120.57 31.1929ZM123.121 30.534C123.196 30.7317 123.253 30.9105 123.29 31.0611L123.959 30.7411C123.827 30.2235 123.441 29.4235 123.055 28.8117L122.425 29.0846C122.566 29.3199 122.697 29.574 122.82 29.8376L121.568 29.8846C122.199 29.1035 122.905 28.0682 123.441 27.2117L122.697 26.8917C122.453 27.3811 122.114 27.9646 121.747 28.5293C121.625 28.3599 121.465 28.1717 121.286 27.9835C121.625 27.4752 122.02 26.7317 122.359 26.0917L121.568 25.8093C121.399 26.3176 121.088 26.9952 120.796 27.5129C120.712 27.4376 120.627 27.3623 120.542 27.287L120.119 27.8705C120.533 28.2658 121.013 28.774 121.305 29.1882C121.116 29.4517 120.937 29.6964 120.759 29.9223L120.1 29.9411L120.175 30.7129C120.608 30.6846 121.107 30.6564 121.643 30.6282V34.4588H122.425V30.5811L123.121 30.534ZM122.632 31.3623C122.867 31.9364 123.121 32.6799 123.206 33.1693L123.902 32.9246C123.799 32.4446 123.545 31.7105 123.29 31.1458L122.632 31.3623ZM125.154 31.7764H127.272V33.3952H125.154V31.7764ZM127.272 27.0988V28.6423H125.154V27.0988H127.272ZM127.272 30.9858H125.154V29.4329H127.272V30.9858ZM128.156 33.3952V26.3082H124.297V33.3952H123.366V34.1858H128.834V33.3952H128.156Z" fill="white"/>
<path d="M41.9118 10.1525H38.318V9.04952C38.318 8.53481 38.2721 8.20699 38.1801 8.06606C38.0882 7.92513 37.9351 7.85466 37.7206 7.85466C37.4877 7.85466 37.3101 7.94964 37.1875 8.13959C37.0711 8.32954 37.0129 8.61753 37.0129 9.00356C37.0129 9.49988 37.0803 9.87366 37.2151 10.1249C37.3438 10.3761 37.7083 10.6794 38.3088 11.0348C40.0306 12.0581 41.1152 12.8976 41.5625 13.5532C42.0098 14.2088 42.2335 15.2658 42.2335 16.7241C42.2335 17.7842 42.1078 18.5654 41.8566 19.0679C41.6115 19.5704 41.1336 19.9931 40.4228 20.3363C39.712 20.6733 38.8848 20.8418 37.9412 20.8418C36.9056 20.8418 36.0202 20.6457 35.2849 20.2536C34.5558 19.8614 34.0778 19.362 33.8511 18.7554C33.6244 18.1488 33.511 17.2879 33.511 16.1727V15.1984H37.1048V17.0091C37.1048 17.5667 37.1538 17.9251 37.2518 18.0844C37.356 18.2438 37.5368 18.3234 37.7941 18.3234C38.0515 18.3234 38.2414 18.2223 38.364 18.0201C38.4926 17.8179 38.557 17.5177 38.557 17.1194C38.557 16.2431 38.4375 15.6702 38.1985 15.4006C37.9534 15.131 37.3499 14.6806 36.3879 14.0495C35.4259 13.4123 34.7886 12.9496 34.4761 12.6616C34.1636 12.3737 33.9032 11.9754 33.6949 11.4668C33.4926 10.9582 33.3915 10.3087 33.3915 9.51827C33.3915 8.37856 33.5355 7.54523 33.8235 7.01827C34.1176 6.49131 34.5895 6.08077 35.239 5.78665C35.8885 5.4864 36.6728 5.33628 37.5919 5.33628C38.5968 5.33628 39.4516 5.49866 40.1563 5.82341C40.867 6.14817 41.3358 6.55871 41.5625 7.05503C41.7953 7.54523 41.9118 8.38162 41.9118 9.56422V10.1525ZM52.2978 14.362C52.2978 15.8571 52.261 16.9172 52.1875 17.5422C52.1201 18.161 51.8995 18.7278 51.5257 19.2425C51.1581 19.7572 50.6587 20.1525 50.0276 20.4282C49.3964 20.7039 48.6612 20.8418 47.8217 20.8418C47.0251 20.8418 46.3082 20.7131 45.671 20.4558C45.0398 20.1923 44.5313 19.8001 44.1452 19.2793C43.7592 18.7585 43.5294 18.1917 43.4559 17.5789C43.3824 16.9662 43.3456 15.8939 43.3456 14.362V11.8161C43.3456 10.321 43.3793 9.26398 43.4467 8.64511C43.5202 8.02011 43.7408 7.45025 44.1085 6.93555C44.4822 6.42084 44.9847 6.02562 45.6158 5.74988C46.2469 5.47415 46.9822 5.33628 47.8217 5.33628C48.6183 5.33628 49.3321 5.46802 49.9632 5.7315C50.6005 5.98886 51.1121 6.37795 51.4982 6.89878C51.8842 7.41961 52.114 7.9864 52.1875 8.59915C52.261 9.21189 52.2978 10.2842 52.2978 11.8161V14.362ZM48.4283 9.47231C48.4283 8.77991 48.3885 8.33873 48.3088 8.14878C48.2353 7.9527 48.079 7.85466 47.8401 7.85466C47.6379 7.85466 47.4816 7.93432 47.3713 8.09363C47.2672 8.24682 47.2151 8.70638 47.2151 9.47231V16.4208C47.2151 17.2848 47.2488 17.8179 47.3162 18.0201C47.3897 18.2223 47.5551 18.3234 47.8125 18.3234C48.076 18.3234 48.2445 18.207 48.318 17.9741C48.3915 17.7413 48.4283 17.1868 48.4283 16.3105V9.47231ZM62.3897 5.64878V20.5293H58.9982L56.9853 13.7646V20.5293H53.75V5.64878H56.9853L59.1544 12.3491V5.64878H62.3897ZM72.7941 14.362C72.7941 15.8571 72.7574 16.9172 72.6838 17.5422C72.6164 18.161 72.3958 18.7278 72.0221 19.2425C71.6544 19.7572 71.155 20.1525 70.5239 20.4282C69.8928 20.7039 69.1575 20.8418 68.318 20.8418C67.5214 20.8418 66.8045 20.7131 66.1673 20.4558C65.5362 20.1923 65.0276 19.8001 64.6415 19.2793C64.2555 18.7585 64.0257 18.1917 63.9522 17.5789C63.8787 16.9662 63.8419 15.8939 63.8419 14.362V11.8161C63.8419 10.321 63.8756 9.26398 63.943 8.64511C64.0165 8.02011 64.2371 7.45025 64.6048 6.93555C64.9786 6.42084 65.481 6.02562 66.1121 5.74988C66.7433 5.47415 67.4786 5.33628 68.318 5.33628C69.1146 5.33628 69.8284 5.46802 70.4596 5.7315C71.0968 5.98886 71.6085 6.37795 71.9945 6.89878C72.3805 7.41961 72.6103 7.9864 72.6838 8.59915C72.7574 9.21189 72.7941 10.2842 72.7941 11.8161V14.362ZM68.9246 9.47231C68.9246 8.77991 68.8848 8.33873 68.8051 8.14878C68.7316 7.9527 68.5754 7.85466 68.3364 7.85466C68.1342 7.85466 67.9779 7.93432 67.8676 8.09363C67.7635 8.24682 67.7114 8.70638 67.7114 9.47231V16.4208C67.7114 17.2848 67.7451 17.8179 67.8125 18.0201C67.886 18.2223 68.0515 18.3234 68.3088 18.3234C68.5723 18.3234 68.7408 18.207 68.8143 17.9741C68.8879 17.7413 68.9246 17.1868 68.9246 16.3105V9.47231ZM80.7169 5.64878V8.62672L77.8309 17.5514H80.7169V20.5293H73.5846V18.3694L76.5625 8.62672H73.9338V5.64878H80.7169ZM88.4099 5.64878L90.625 20.5293H86.6636L86.4706 17.8547H85.0827L84.8529 20.5293H80.8456L82.8125 5.64878H88.4099ZM86.3603 15.2168C86.1642 13.5317 85.9681 11.4515 85.7721 8.97599C85.3799 11.8191 85.1348 13.8994 85.0368 15.2168H86.3603ZM100.506 5.64878L98.2904 12.3675L100.717 20.5293H96.7188L95.1563 14.1506V20.5293H91.2868V5.64878H95.1563V11.43L96.875 5.64878H100.506ZM105.267 5.64878V20.5293H101.397V5.64878H105.267ZM119.182 12.1378H115.313V9.54584C115.313 8.79216 115.27 8.32341 115.184 8.13959C115.104 7.94964 114.923 7.85466 114.642 7.85466C114.323 7.85466 114.121 7.96802 114.035 8.19474C113.949 8.42145 113.906 8.91165 113.906 9.66533V16.5771C113.906 17.3001 113.949 17.7719 114.035 17.9925C114.121 18.2131 114.314 18.3234 114.614 18.3234C114.902 18.3234 115.089 18.2131 115.175 17.9925C115.267 17.7719 115.313 17.2542 115.313 16.4392V14.5734H119.182V15.1525C119.182 16.6904 119.072 17.7811 118.851 18.4245C118.637 19.0679 118.156 19.6316 117.408 20.1157C116.667 20.5998 115.751 20.8418 114.66 20.8418C113.526 20.8418 112.592 20.6365 111.857 20.226C111.121 19.8154 110.634 19.2487 110.395 18.5256C110.156 17.7965 110.037 16.7027 110.037 15.2444V10.8969C110.037 9.82464 110.074 9.02194 110.147 8.48886C110.221 7.94964 110.438 7.43187 110.8 6.93555C111.167 6.43922 111.673 6.05013 112.316 5.76827C112.966 5.48028 113.71 5.33628 114.55 5.33628C115.689 5.33628 116.63 5.55687 117.371 5.99805C118.113 6.43922 118.6 6.99069 118.833 7.65246C119.066 8.3081 119.182 9.33138 119.182 10.7223V12.1378ZM129.412 14.362C129.412 15.8571 129.375 16.9172 129.301 17.5422C129.234 18.161 129.013 18.7278 128.64 19.2425C128.272 19.7572 127.773 20.1525 127.142 20.4282C126.51 20.7039 125.775 20.8418 124.936 20.8418C124.139 20.8418 123.422 20.7131 122.785 20.4558C122.154 20.1923 121.645 19.8001 121.259 19.2793C120.873 18.7585 120.643 18.1917 120.57 17.5789C120.496 16.9662 120.46 15.8939 120.46 14.362V11.8161C120.46 10.321 120.493 9.26398 120.561 8.64511C120.634 8.02011 120.855 7.45025 121.222 6.93555C121.596 6.42084 122.099 6.02562 122.73 5.74988C123.361 5.47415 124.096 5.33628 124.936 5.33628C125.732 5.33628 126.446 5.46802 127.077 5.7315C127.714 5.98886 128.226 6.37795 128.612 6.89878C128.998 7.41961 129.228 7.9864 129.301 8.59915C129.375 9.21189 129.412 10.2842 129.412 11.8161V14.362ZM125.542 9.47231C125.542 8.77991 125.502 8.33873 125.423 8.14878C125.349 7.9527 125.193 7.85466 124.954 7.85466C124.752 7.85466 124.596 7.93432 124.485 8.09363C124.381 8.24682 124.329 8.70638 124.329 9.47231V16.4208C124.329 17.2848 124.363 17.8179 124.43 18.0201C124.504 18.2223 124.669 18.3234 124.926 18.3234C125.19 18.3234 125.358 18.207 125.432 17.9741C125.506 17.7413 125.542 17.1868 125.542 16.3105V9.47231ZM133.226 17.4962V20.5293H130.423V17.4962H133.226ZM138.208 5.64878V17.5514H140.561V20.5293H134.338V5.64878H138.208ZM149.301 5.64878V8.62672H147.004V20.5293H143.134V8.62672H140.846V5.64878H149.301ZM150.184 5.64878H153.079C154.948 5.64878 156.21 5.73457 156.866 5.90613C157.528 6.0777 158.03 6.35957 158.373 6.75172C158.716 7.14388 158.931 7.58199 159.017 8.06606C159.102 8.544 159.145 9.48763 159.145 10.8969V16.1083C159.145 17.4441 159.081 18.3387 158.952 18.7922C158.83 19.2395 158.612 19.5918 158.3 19.8491C157.987 20.1004 157.601 20.2781 157.142 20.3822C156.682 20.4803 155.99 20.5293 155.064 20.5293H150.184V5.64878ZM154.053 8.19474V17.9833C154.611 17.9833 154.954 17.873 155.083 17.6525C155.211 17.4257 155.276 16.8161 155.276 15.8234V10.0422C155.276 9.36814 155.254 8.93616 155.211 8.74621C155.169 8.55626 155.07 8.41839 154.917 8.33261C154.764 8.24069 154.476 8.19474 154.053 8.19474Z" fill="white"/>
<g clip-path="url(#clip0)">
<path d="M14.0118 3.47733L14.1177 3.5429L14.2236 3.47733C14.6293 3.22658 15.056 3.00379 15.4925 2.81496L15.8643 2.65404L15.5115 2.45463C15.0905 2.21629 14.6424 2.01958 14.1801 1.86969L14.1177 1.84912L14.0554 1.86975C13.593 2.01964 13.145 2.21629 12.724 2.45469L12.3712 2.6541L12.743 2.81502C13.1794 3.00384 13.6062 3.22663 14.0118 3.47733Z" fill="white"/>
<path d="M28.2353 11.9182C28.2353 8.8157 26.5759 5.91485 23.9019 4.33335C22.3207 1.65949 19.4196 0 16.3169 0C15.5745 0 14.8351 0.0939706 14.1176 0.278713C13.4002 0.0939706 12.6608 0 11.9184 0C8.8157 0 5.91463 1.65949 4.33335 4.33335C1.65949 5.91485 0 8.8157 0 11.9182C0 12.6608 0.0941912 13.4002 0.278713 14.1176C0.0941912 14.8351 0 15.5745 0 16.3171C0 19.4196 1.65949 22.3204 4.33335 23.902C5.91463 26.5758 8.8157 28.2353 11.9184 28.2353C12.6608 28.2353 13.4002 28.1413 14.1176 27.9566C14.8351 28.1413 15.5745 28.2353 16.3169 28.2353C19.4196 28.2353 22.3207 26.5758 23.902 23.9019C26.5759 22.3204 28.2353 19.4196 28.2353 16.3171C28.2353 15.5745 28.1411 14.8351 27.9566 14.1176C28.1411 13.4002 28.2353 12.6608 28.2353 11.9182ZM24.7532 18.4198L24.67 18.4885L24.6806 18.5954C24.7079 18.8745 24.7218 19.1546 24.7218 19.4274C24.7218 20.8943 24.3361 22.3378 23.607 23.6067C22.3381 24.3361 20.8941 24.7215 19.4272 24.7215C19.1547 24.7215 18.8748 24.7078 18.5956 24.6807L18.4883 24.6698L18.4201 24.7536C17.2997 26.1197 15.8126 27.0815 14.1176 27.5399C12.4227 27.0815 10.9356 26.1197 9.81524 24.7536L9.74697 24.6698L9.63971 24.6807C9.3605 24.7078 9.08062 24.7215 8.80814 24.7215C7.34123 24.7215 5.89726 24.3361 4.62838 23.6067C3.89928 22.3378 3.51353 20.8943 3.51353 19.4274C3.51353 19.1546 3.52754 18.8745 3.55478 18.5954L3.56531 18.4885L3.48215 18.4198C2.11599 17.2995 1.15379 15.8128 0.695846 14.1176C1.15379 12.4225 2.11599 10.9358 3.4821 9.81552L3.56526 9.74675L3.55472 9.63993C3.52748 9.36077 3.51347 9.08068 3.51347 8.80792C3.51347 7.34101 3.89923 5.89748 4.62833 4.6286C5.89721 3.89923 7.34118 3.51375 8.80809 3.51375C9.08057 3.51375 9.36044 3.52754 9.63965 3.55456L9.74691 3.56553L9.81518 3.48165C10.9356 2.11555 12.4227 1.15379 14.1176 0.695404C15.8126 1.15379 17.2997 2.11555 18.4201 3.4816L18.4883 3.56548L18.5956 3.5545C18.8748 3.52748 19.1547 3.51369 19.4272 3.51369C20.8941 3.51369 22.3381 3.89917 23.607 4.62855C24.3361 5.89743 24.7218 7.34096 24.7218 8.80787C24.7218 9.08063 24.7079 9.36072 24.6806 9.63987L24.67 9.74669L24.7532 9.81546C26.1193 10.9358 27.0815 12.4224 27.5394 14.1176C27.0815 15.8128 26.1193 17.2995 24.7532 18.4198Z" fill="white"/>
<path d="M21.5667 6.51863L21.5954 6.63962L21.7166 6.66852C22.1791 6.7776 22.6368 6.92154 23.0781 7.09575L23.4548 7.24519L23.3462 6.85459C23.2164 6.38793 23.0397 5.93324 22.8206 5.50276L22.7908 5.44408L22.7323 5.4143C22.3021 5.19564 21.8473 5.01868 21.3807 4.88891L20.9901 4.78027L21.1391 5.15704C21.3139 5.59811 21.4576 6.05649 21.5667 6.51863Z" fill="white"/>
<path d="M17.1347 6.53333L17.2103 6.64925L17.346 6.62036C17.7416 6.53559 18.1466 6.47416 18.5496 6.43881L18.8169 6.41499L18.7199 6.16473C18.5464 5.71782 18.327 5.28596 18.068 4.88118L17.9924 4.76245L17.8551 4.79273C17.3855 4.89629 16.9243 5.04712 16.4843 5.24195L16.2388 5.34966L16.4112 5.55552C16.6715 5.86589 16.9151 6.19501 17.1347 6.53333Z" fill="white"/>
<path d="M24.6924 14.1176L24.7579 14.224C25.0084 14.6292 25.2311 15.056 25.4202 15.4923L25.5812 15.8641L25.7808 15.5116C26.0189 15.0904 26.2158 14.6425 26.3657 14.1799L26.3859 14.1176L26.3657 14.0553C26.2158 13.5927 26.0189 13.1449 25.7808 12.7236L25.5812 12.3711L25.4202 12.7428C25.2311 13.1793 25.0084 13.606 24.7579 14.0112L24.6924 14.1176Z" fill="white"/>
<path d="M22.0703 9.51563L21.8203 9.41846L21.7967 9.6857C21.7609 10.0887 21.6999 10.4934 21.6151 10.889L21.5858 11.0252L21.7022 11.1004C22.0402 11.3204 22.3692 11.5638 22.6797 11.8238L22.8853 11.9961L22.9937 11.7513C23.1881 11.3108 23.3391 10.8496 23.4425 10.3802L23.4727 10.2431L23.3543 10.167C22.9495 9.90849 22.5174 9.6889 22.0703 9.51563Z" fill="white"/>
<path d="M18.3201 9.1009L18.3809 9.32551C18.4079 9.42588 18.4331 9.52674 18.4572 9.62805L18.4856 9.74998L18.6074 9.77843C18.7087 9.80182 18.8095 9.82746 18.9097 9.85454L19.1345 9.91553L19.1625 9.68402C19.1797 9.54097 19.1929 9.39384 19.2019 9.24715L19.2154 9.01978L18.9885 9.03351C18.8416 9.04222 18.6947 9.05551 18.5511 9.07294L18.3201 9.1009Z" fill="white"/>
<path d="M21.7167 21.5667L21.5955 21.5956L21.5669 21.7166C21.4577 22.1787 21.314 22.6371 21.1394 23.0781L20.9904 23.4548L21.381 23.3462C21.8476 23.2164 22.3023 23.0395 22.7326 22.8208L22.791 22.791L22.8208 22.7324C23.0399 22.3019 23.2166 21.8472 23.3464 21.381L23.455 20.99L23.0783 21.1394C22.637 21.3137 22.1792 21.4576 21.7167 21.5667Z" fill="white"/>
<path d="M22.9937 16.4838L22.8853 16.239L22.6797 16.4114C22.3692 16.6713 22.0402 16.9147 21.7022 17.1348L21.5858 17.21L21.6151 17.3461C21.6999 17.7418 21.7609 18.1466 21.7967 18.5495L21.8203 18.8167L22.0703 18.7195C22.5174 18.5463 22.9496 18.3267 23.3543 18.0681L23.4728 17.992L23.4425 17.8549C23.3391 17.3855 23.1881 16.9244 22.9937 16.4838Z" fill="white"/>
<path d="M21.3229 14.1178L21.153 13.967C21.0446 13.8707 20.9316 13.7763 20.8179 13.6869L20.6348 13.543L20.5186 13.7451C20.4668 13.8345 20.4138 13.9234 20.3593 14.0119L20.2937 14.1178L20.3593 14.2236C20.4138 14.3121 20.4668 14.401 20.5186 14.4904L20.6348 14.6925L20.8179 14.5486C20.9317 14.4592 21.0446 14.3648 21.153 14.2685L21.3229 14.1178Z" fill="white"/>
<path d="M20.2879 11.5606L20.125 11.4827C19.3083 11.0908 18.4367 10.829 17.5308 10.7044C17.4061 9.79901 17.1448 8.92664 16.7527 8.11069L16.6745 7.94751L16.504 8.00756C15.6473 8.30922 14.8453 8.74058 14.1178 9.29111C13.3903 8.74052 12.5883 8.30916 11.7315 8.00756L11.561 7.94751L11.4828 8.11069C11.0907 8.92714 10.8293 9.79901 10.7047 10.7044C9.79886 10.829 8.92726 11.0908 8.11059 11.4827L7.94763 11.5606L8.00769 11.7311C8.30912 12.5879 8.7407 13.3901 9.29151 14.1176C8.7407 14.8451 8.30912 15.6473 8.00769 16.5041L7.94763 16.6746L8.11059 16.7525C8.92704 17.1445 9.79892 17.4063 10.7047 17.5309C10.8294 18.4362 11.0907 19.3082 11.4828 20.1246L11.561 20.2877L11.7315 20.2277C12.5883 19.926 13.3903 19.4947 14.1178 18.9441C14.8453 19.4947 15.6473 19.9261 16.504 20.2277L16.6745 20.2877L16.7527 20.1246C17.1448 19.3086 17.4062 18.4362 17.5308 17.5309C18.4367 17.4062 19.3085 17.1444 20.125 16.7525L20.2879 16.6746L20.2278 16.5041C19.9264 15.6473 19.4949 14.8451 18.9441 14.1176C19.4949 13.3901 19.9265 12.5879 20.2278 11.7311L20.2879 11.5606ZM16.099 16.0988C15.4737 16.4582 14.8076 16.7347 14.1177 16.9212C13.4278 16.7346 12.7617 16.4582 12.1365 16.0988C11.7771 15.4736 11.5004 14.8075 11.3139 14.1176C11.5004 13.4277 11.7772 12.7616 12.1365 12.1364C12.7617 11.777 13.4278 11.5006 14.1177 11.314C14.8076 11.5006 15.4737 11.777 16.099 12.1364C16.4584 12.7617 16.735 13.4277 16.9216 14.1176C16.735 14.8075 16.4584 15.4736 16.099 16.0988Z" fill="white"/>
<path d="M14.2236 24.758L14.1177 24.6924L14.0118 24.758C13.6062 25.0087 13.1794 25.2315 12.743 25.4203L12.3712 25.5812L12.724 25.7807C13.145 26.019 13.5931 26.2157 14.0554 26.3656L14.1177 26.3862L14.18 26.3656C14.6424 26.2157 15.0904 26.0191 15.5115 25.7807L15.8642 25.5812L15.4924 25.4203C15.0561 25.2314 14.6293 25.0087 14.2236 24.758Z" fill="white"/>
<path d="M17.3459 21.6148L17.2102 21.5859L17.1346 21.7019C16.915 22.0402 16.6714 22.3693 16.411 22.6796L16.2386 22.885L16.4841 22.9932C16.9242 23.188 17.3853 23.3388 17.855 23.4424L17.9923 23.4727L18.0679 23.354C18.3269 22.9492 18.5462 22.5173 18.7197 22.0704L18.8167 21.8201L18.5494 21.7963C18.1465 21.761 17.7415 21.6996 17.3459 21.6148Z" fill="white"/>
<path d="M19.1625 18.5513L19.1345 18.3198L18.9097 18.3808C18.8095 18.4078 18.7084 18.4335 18.6074 18.4569L18.4856 18.4858L18.4572 18.6073C18.4332 18.7086 18.4079 18.8095 18.3809 18.9098L18.3201 19.1345L18.5512 19.1624C18.6947 19.1798 18.8416 19.1926 18.9885 19.2018L19.2155 19.2156L19.202 18.9882C19.193 18.8415 19.1797 18.6944 19.1625 18.5513Z" fill="white"/>
<path d="M6.66852 21.7166L6.63984 21.5956L6.51857 21.5667C6.05605 21.4576 5.59833 21.3136 5.1571 21.1394L4.78027 20.99L4.88891 21.381C5.01862 21.8472 5.19537 22.3019 5.41447 22.7324L5.4443 22.791L5.50276 22.8208C5.93296 23.0395 6.38771 23.2164 6.85442 23.3462L7.24497 23.4548L7.09597 23.0781C6.92131 22.6371 6.7776 22.1787 6.66852 21.7166Z" fill="white"/>
<path d="M11.1006 21.7019L11.0249 21.5859L10.8893 21.6148C10.4936 21.6996 10.0886 21.761 9.68568 21.7964L9.41844 21.8202L9.51539 22.0705C9.68888 22.5174 9.90826 22.9492 10.1672 23.354L10.2429 23.4727L10.3802 23.4425C10.8498 23.3389 11.311 23.1881 11.7511 22.9932L11.9966 22.885L11.8242 22.6797C11.5638 22.3693 11.3201 22.0402 11.1006 21.7019Z" fill="white"/>
<path d="M14.1175 21.323L14.2684 21.153C14.3646 21.0448 14.4588 20.932 14.5484 20.8178L14.6924 20.635L14.4906 20.519C14.4005 20.4672 14.3116 20.4141 14.2234 20.3595L14.1175 20.2939L14.0117 20.3595C13.9234 20.4141 13.8345 20.4673 13.7444 20.519L13.5427 20.635L13.6866 20.8178C13.7763 20.932 13.8704 21.0448 13.9667 21.153L14.1175 21.323Z" fill="white"/>
<path d="M6.51864 6.66841L6.63991 6.63951L6.66859 6.51852C6.77767 6.05644 6.92138 5.59805 7.09603 5.15704L7.24504 4.78027L6.85449 4.88891C6.38778 5.01868 5.93309 5.19564 5.50283 5.4143L5.44438 5.44408L5.41454 5.50276C5.19544 5.93324 5.0187 6.38793 4.88899 6.85459L4.78035 7.24519L5.15717 7.09575C5.5984 6.92142 6.05612 6.77749 6.51864 6.66841Z" fill="white"/>
<path d="M10.8893 6.6203L11.0249 6.6492L11.1006 6.53328C11.3201 6.19495 11.5638 5.86583 11.8242 5.55552L11.9966 5.34966L11.7511 5.24195C11.311 5.04712 10.8498 4.89629 10.3802 4.79273L10.2429 4.76245L10.1672 4.88118C9.9082 5.28596 9.68888 5.71782 9.51539 6.16473L9.41844 6.41499L9.68568 6.43881C10.0886 6.47411 10.4936 6.53554 10.8893 6.6203Z" fill="white"/>
<path d="M14.1175 6.91235L13.9667 7.08242C13.8704 7.19062 13.7763 7.3034 13.6866 7.41755L13.5427 7.60041L13.7444 7.71639C13.8345 7.76817 13.9234 7.82133 14.0117 7.87587L14.1175 7.94144L14.2234 7.87587C14.3116 7.82133 14.4005 7.76811 14.4906 7.71639L14.6924 7.60041L14.5484 7.41755C14.4588 7.3034 14.3646 7.19062 14.2684 7.08242L14.1175 6.91235Z" fill="white"/>
<path d="M2.81513 12.7428L2.65421 12.3711L2.45458 12.7236C2.21645 13.1448 2.01958 13.5927 1.86963 14.0553L1.8495 14.1176L1.86963 14.1799C2.01958 14.6425 2.21645 15.0903 2.45458 15.5116L2.65421 15.8641L2.81513 15.4923C3.00423 15.0559 3.22697 14.6291 3.47756 14.224L3.54313 14.1176L3.47756 14.0112C3.22703 13.606 3.00423 13.1792 2.81513 12.7428Z" fill="white"/>
<path d="M5.24139 11.7513L5.34981 11.9961L5.5554 11.8238C5.86599 11.5638 6.19488 11.3204 6.53294 11.1004L6.64935 11.0252L6.62001 10.889C6.53525 10.4934 6.47426 10.0886 6.43847 9.6857L6.41487 9.41846L6.16483 9.51563C5.71764 9.6889 5.28562 9.90849 4.88084 10.167L4.76233 10.2431L4.7926 10.3802C4.89601 10.8496 5.04705 11.3108 5.24139 11.7513Z" fill="white"/>
<path d="M9.07279 9.68402L9.10075 9.91553L9.32559 9.85454C9.42573 9.82751 9.5266 9.80182 9.62796 9.77843L9.74961 9.74998L9.77807 9.62805C9.80217 9.52674 9.82737 9.42588 9.85439 9.32551L9.91516 9.1009L9.6841 9.07294C9.54061 9.05551 9.39369 9.04222 9.24673 9.03351L9.01985 9.01978L9.03342 9.24715C9.0423 9.39384 9.05559 9.54097 9.07279 9.68402Z" fill="white"/>
<path d="M6.16494 18.7195L6.41497 18.8167L6.43858 18.5495C6.47431 18.1465 6.5353 17.7417 6.62012 17.3461L6.64946 17.21L6.53304 17.1348C6.19499 16.9147 5.86609 16.6713 5.55551 16.4114L5.34992 16.239L5.2415 16.4838C5.04716 16.9244 4.89611 17.3855 4.79271 17.8549L4.76244 17.992L4.88095 18.0681C5.28573 18.3267 5.71775 18.5463 6.16494 18.7195Z" fill="white"/>
<path d="M7.71667 13.7451L7.60042 13.543L7.41733 13.6869C7.30361 13.7763 7.19067 13.8707 7.08219 13.967L6.91234 14.1178L7.08219 14.2686C7.19061 14.3649 7.30361 14.4593 7.41733 14.5487L7.60042 14.6926L7.71667 14.4905C7.76845 14.4011 7.82139 14.3122 7.87593 14.2237L7.94151 14.1179L7.87593 14.012C7.82139 13.9234 7.76845 13.8345 7.71667 13.7451Z" fill="white"/>
<path d="M9.91516 19.1345L9.85439 18.9098C9.82737 18.8095 9.80217 18.7086 9.77807 18.6073L9.74961 18.4858L9.62796 18.4569C9.52682 18.4335 9.42579 18.4079 9.32559 18.3808L9.10075 18.3198L9.07279 18.5513C9.05559 18.6944 9.04235 18.8415 9.03342 18.9882L9.01985 19.2156L9.24673 19.2018C9.39364 19.1926 9.54061 19.1798 9.6841 19.1624L9.91516 19.1345Z" fill="white"/>
<path d="M15.3123 13.0108L15.2825 12.9526L15.2243 12.9228C14.8878 12.7509 14.5367 12.6051 14.1803 12.4887L14.1177 12.468L14.0552 12.4887C13.6988 12.6051 13.3477 12.7509 13.0112 12.9228L12.9529 12.9526L12.9231 13.0108C12.7515 13.3473 12.6054 13.6984 12.489 14.0546L12.4686 14.1174L12.489 14.1797C12.6054 14.5364 12.7515 14.8875 12.9231 15.224L12.9529 15.2822L13.0112 15.312C13.3476 15.4839 13.6987 15.6297 14.0552 15.7461L14.1177 15.7668L14.1803 15.7461C14.5367 15.6297 14.8879 15.4839 15.2244 15.312L15.2826 15.2822L15.3124 15.224C15.4841 14.8875 15.6301 14.5364 15.7465 14.1797L15.7669 14.1174L15.7465 14.0546C15.63 13.6984 15.484 13.3473 15.3123 13.0108Z" fill="white"/>
</g>
<defs>
<clipPath id="clip0">
<rect width="28.2353" height="28.2353" fill="white"/>
</clipPath>
</defs>
</svg>
